<svg width="1020" height="1000" viewBox="0 0 1020 1000" fill="none" xmlns="http://www.w3.org/2000/svg">
<circle cx="500" cy="500" r="500" fill="#232323"/>
<path d="M164.891 763V213H250.891V513C250.891 532.333 250.224 552.667 248.891 574C248.224 595.333 246.891 615.667 244.891 635C243.557 653.667 241.891 669.667 239.891 683L461.891 213H576.891V763H490.891V463C490.891 443.667 491.224 423.333 491.891 402C493.224 380.667 494.891 360.333 496.891 341C498.891 321 500.557 304.667 501.891 292L279.891 763H164.891ZM474.5 763V213H712.5C769.833 213 814.167 226 845.5 252C876.833 277.333 892.5 313 892.5 359C892.5 397 879.5 427.667 853.5 451C827.5 473.667 793.167 485 750.5 485V477C797.167 477 834.5 488.667 862.5 512C891.167 535.333 905.5 566.667 905.5 606C905.5 655.333 888.833 694 855.5 722C822.167 749.333 775.5 763 715.5 763H474.5ZM562.5 684H715.5C747.5 684 772.167 677 789.5 663C807.5 649 816.5 629.333 816.5 604C816.5 578 807.5 558 789.5 544C772.167 530 747.5 523 715.5 523H562.5V684ZM562.5 445H712.5C740.5 445 762.5 438.333 778.5 425C795.167 411.667 803.5 393 803.5 369C803.5 345 795.5 326.333 779.5 313C763.5 299 741.167 292 712.5 292H562.5V445Z" fill="white"/>
</svg>
